<svg id="Layer_1" enable-background="new 0 0 480.105 480.105" height="512" viewBox="0 0 480.105 480.105" width="512" xmlns="http://www.w3.org/2000/svg"><path d="m394.195 424.52v39.48c0 4.42-3.58 8-8 8h-292c-4.42 0-8-3.58-8-8v-39.48c0-41.24 33.74-73.95 74.98-74.35 13.712-.146 26.035-6.927 33.56-17.65l-.06-.06c8.29-11.793 7.468-22.419 7.48-30.49l.15-.37c-35.88-14.86-61.11-50.22-61.11-91.48v-3.12c-14.26 0-25-11.26-25-24.54v-97.46c0-14.91 12.09-27 27-27 12.073-30.183 41.323-50 73.85-50h68.15c44.18 0 80 35.82 80 80v93c0 14.36-11.64 26-26 26v3.12c0 41.68-25.71 77.21-62.01 91.84.25-.09.49-.19.74-.29.17.425.12-.628.12 7.13.025 22.994 18.664 41.131 41.17 41.37 41.24.4 74.98 33.11 74.98 74.35z" fill="#ffd6a6"/><path d="m365.195 181c0 14.36-11.64 26-26 26v-50.648c0-4.472-3.666-8.053-8.138-7.991-26.252.366-51.666-7.045-73.474-21.514-5.141-3.411-12.18-.054-12.446 6.11-.177 4.098.367 8.156 1.571 12.012 1.788 5.728-3.133 11.319-9.039 10.259-20.911-3.75-41.006-12.98-57.975-27.599-14.885-12.836-38.5-2.811-38.5 17.6v61.771c-14.255 0-25-11.265-25-24.54 0-9.68 0-88.26 0-97.46 0-14.91 12.09-27 27-27 12.073-30.184 41.323-50 73.85-50h68.15c44.183 0 80 35.817 80 80v93z" fill="#42434d"/><path d="m339.195 210.12c0 54.811-44.465 99-99 99-54.629 0-99-44.275-99-99 0-6.211 0-59.011 0-65.36.19-19.75 23.54-30.03 38.5-17.13 16.969 14.619 37.064 23.849 57.975 27.599 5.907 1.059 10.826-4.532 9.038-10.26-1.203-3.855-1.747-7.912-1.571-12.01.266-6.165 7.305-9.523 12.446-6.111 21.801 14.465 47.214 21.88 73.474 21.514 4.471-.062 8.138 3.519 8.138 7.991z" fill="#ffdfba"/><path d="m394.195 424.52v39.48c0 4.42-3.58 8-8 8h-292c-4.42 0-8-3.58-8-8v-39.48c0-41.24 33.74-73.95 74.98-74.35 13.637-.145 25.995-6.858 33.57-17.67 27.048 30.057 32.094 35.663 39.5 43.9 3.18 3.53 8.72 3.53 11.9 0 7.578-8.428 12.77-14.196 39.439-43.832 7.248 10.345 19.645 17.454 33.631 17.602 41.24.4 74.98 33.11 74.98 74.35z" fill="#fe4f60"/><path d="m141.225 143.92c-.02.43-.03.87-.03 1.31 0-.501-.006-.815.03-1.31z" fill="#ffd6a6"/><path d="m141.225 143.92c-.02.43-.03.87-.03 1.31 0-.501-.006-.815.03-1.31z" fill="#ffd6a6"/><path d="m217.793 274.089c16.271 10.175 3.429 35.144-14.381 27.996-36.623-14.699-62.217-50.385-62.217-91.936 0-69.645-.02-65.525.041-66.571 1.125-19.154 29.951-17.951 29.954 1.237.002 9.814.005 24.196.005 45.334 0 36.5 19.188 66.8 46.598 83.94z" fill="#ffebd2"/><path d="m279.325 318.42c-24.637 10.313-51.712 11.113-78.26 0 1.356-5.626 1.13-9.27 1.13-16.42l.15-.37c24.082 9.996 51.571 10.016 75.7 0l.15.37c0 7.153-.226 10.796 1.13 16.42z" fill="#f7c388"/><path d="m298.075 370.25c39.58 1.8 71.12 34.47 71.12 74.49v27.26h17c4.418 0 8-3.582 8-8v-39.418c0-41.254-33.753-73.989-75.006-74.414-5.641-.058-11.02-1.242-15.914-3.338-.125.264-5.137 23.135-5.2 23.42z" fill="#e84857"/><path d="m303.275 346.83c-.124.264-9.994 45.164-9.931 44.878-1.302 5.907-8.778 7.809-12.745 3.242-26.257-30.236-22.675-26.293-25.334-28.691l30.319-33.692c4.4 6.281 10.561 11.203 17.691 14.263z" fill="#ff6d7a"/><path d="m194.745 332.5 29.66 32.96-24.603 29.155c-3.932 4.66-11.5 2.792-12.812-3.163-.063-.285-9.75-44.359-9.875-44.623 7.13-3.059 13.23-8.049 17.63-14.329z" fill="#ff6d7a"/><path d="m195.375 374.5c1.49 6.77 3.08 13.98 4.43 20.11-3.932 4.661-11.5 2.799-12.811-3.157-3.845-17.462-9.794-44.445-9.878-44.623 7.13-3.06 13.23-8.05 17.63-14.33l8.54 9.5c-7.341 9.14-10.451 20.99-7.911 32.5z" fill="#fe929f"/><path d="m182.315 370.25c-39.58 1.8-71.12 34.47-71.12 74.49v27.26h-17c-4.418 0-8-3.582-8-8v-39.418c0-41.254 33.753-73.989 75.006-74.414 5.641-.058 11.02-1.242 15.914-3.338.124.264 5.137 23.135 5.2 23.42z" fill="#ff6d7a"/><path d="m320.893 16.388c10.852 5.421 6.863 21.677-5.267 21.613-.352-.002-68.228-.001-68.581-.001-30.55 0-58.232 17.484-71.483 44.657-1.511 3.099-4.431 5.201-7.808 5.892-12.303 2.518-21.559 13.405-21.559 26.451v12.059c0 6.526-5 7.536-5 18.171v37.524c0 16.051-24.159 16.975-24.969.945-.049-.965-.031 5.604-.031-98.699 0-14.91 12.09-27 27-27 12.073-30.183 41.323-50 73.85-50h68.15c12.827 0 24.951 3.02 35.698 8.388z" fill="#4d4e59"/><path d="m319.551 342.226c-11.782-.008-22.467-6.016-28.583-16.07-2.295-3.774-7.216-4.974-10.992-2.678-3.775 2.296-4.974 7.218-2.678 10.992 4.253 6.993 10.014 12.641 16.721 16.684l-8.316 37.622-19.973-23.03c3.639-4.182 2.752-9.051-.364-11.765-3.332-2.899-8.385-2.554-11.287.779l-14.077 16.167-35.411-39.4c2.962-5.689 4.844-12.028 5.382-18.754 68.333 20.155 136.671-31.131 137.219-101.808.005-.179.003-30.535.003-30.714 0-4.418-3.582-8-8-8s-8 3.582-8 8v29.875c0 50.178-40.822 91-91 91s-91-40.822-91-91v-64.891c.067-13.642 15.558-19.924 25.271-11.549 22.577 19.467 50.444 29.925 78.333 31.305 6.903.338 10.962-7.683 6.6-13.041-4.077-5.008-6.534-11.563-6.276-18.456 26.19 17.396 56.721 24.738 86.673 22.484 4.405-.331 7.708-4.172 7.377-8.578-.332-4.404-4.172-7.705-8.578-7.377-30.128 2.269-60.562-6.395-85.401-26.27-4.094-3.275-10.184-1.785-12.31 2.999-4.181 9.414-5.052 20.266-1.8 30.593-20.165-3.638-38.756-12.486-54.17-25.777-20.152-17.373-51.46-3.4-51.717 23.145 0 .271-.004 32.715 0 52.385-5.345-2.771-9.002-8.288-9.002-14.637v-97.461c0-10.477 8.523-19 19-19 3.271 0 6.213-1.991 7.428-5.029 10.927-27.319 37-44.971 66.423-44.971h68.148c39.701 0 72 32.299 72 72v94.46c0 4.418 3.582 8 8 8s8-3.582 8-8v-94.46c0-48.523-39.477-88-88-88h-68.148c-34.32 0-64.917 19.63-79.285 50.421-16.727 2.619-29.566 17.128-29.566 34.579v97.46c0 15.303 10.707 28.165 25.077 31.62 1.494 40.853 25.997 75.936 60.908 92.635-.046 7.341-.996 16.857-9.835 25.658-6.174 6.148-14.478 9.744-23.706 9.744-45.641 0-82.537 36.922-82.569 82.515l-.032 47.257c-.003 4.419 3.576 8.003 7.994 8.006 4.436 0 8.003-3.59 8.006-7.994l.032-47.257c.026-36.704 29.681-66.526 66.655-66.526 3.575 0 7.057-.387 10.416-1.104l11.128 50.668c1.406 6.405 9.539 8.491 13.851 3.534l28.808-33.127 7.169 7.976-.033 47.93c-.003 4.421 3.579 8.006 8 8.006 4.416 0 7.997-3.578 8-7.994l.033-48.009 7.024-8.066 28.918 33.345c4.302 4.962 12.44 2.89 13.855-3.515l11.197-50.655c3.388.723 6.883 1.117 10.451 1.12 36.798.024 66.554 29.825 66.527 66.617l-.032 47.257c-.003 4.419 3.576 8.003 7.994 8.006 4.436 0 8.003-3.59 8.006-7.994l.032-47.257c.032-45.645-36.882-82.6-82.518-82.63zm-125.068 46.487-8.268-37.645c3.094-1.86 5.958-4.057 8.561-6.527l19.373 21.556z"/></svg>